<svg xmlns="http://www.w3.org/2000/svg" viewBox="0 0 100 100" preserveAspectRatio="xMidYMid" width="261" height="261" style="shape-rendering: auto; display: block; background: transparent;" xmlns:xlink="http://www.w3.org/1999/xlink"><g><g transform="rotate(0 50 50)">
  <rect fill="#fe718d" height="3" width="3" ry="0.75" rx="0.75" y="14.5" x="48.5">
    <animate repeatCount="indefinite" begin="-0.3589263420724095s" dur="0.37453183520599254s" keyTimes="0;1" values="1;0" attributeName="opacity"></animate>
  </rect>
</g><g transform="rotate(15 50 50)">
  <rect fill="#f47e60" height="3" width="3" ry="0.75" rx="0.75" y="14.5" x="48.5">
    <animate repeatCount="indefinite" begin="-0.3433208489388265s" dur="0.37453183520599254s" keyTimes="0;1" values="1;0" attributeName="opacity"></animate>
  </rect>
</g><g transform="rotate(30 50 50)">
  <rect fill="#f8b26a" height="3" width="3" ry="0.75" rx="0.75" y="14.5" x="48.5">
    <animate repeatCount="indefinite" begin="-0.32771535580524347s" dur="0.37453183520599254s" keyTimes="0;1" values="1;0" attributeName="opacity"></animate>
  </rect>
</g><g transform="rotate(45 50 50)">
  <rect fill="#abbd81" height="3" width="3" ry="0.75" rx="0.75" y="14.5" x="48.5">
    <animate repeatCount="indefinite" begin="-0.3121098626716604s" dur="0.37453183520599254s" keyTimes="0;1" values="1;0" attributeName="opacity"></animate>
  </rect>
</g><g transform="rotate(60 50 50)">
  <rect fill="#849b87" height="3" width="3" ry="0.75" rx="0.75" y="14.5" x="48.5">
    <animate repeatCount="indefinite" begin="-0.2965043695380774s" dur="0.37453183520599254s" keyTimes="0;1" values="1;0" attributeName="opacity"></animate>
  </rect>
</g><g transform="rotate(75 50 50)">
  <rect fill="#6492ac" height="3" width="3" ry="0.75" rx="0.75" y="14.5" x="48.5">
    <animate repeatCount="indefinite" begin="-0.2808988764044944s" dur="0.37453183520599254s" keyTimes="0;1" values="1;0" attributeName="opacity"></animate>
  </rect>
</g><g transform="rotate(90 50 50)">
  <rect fill="#637cb5" height="3" width="3" ry="0.75" rx="0.75" y="14.5" x="48.5">
    <animate repeatCount="indefinite" begin="-0.26529338327091134s" dur="0.37453183520599254s" keyTimes="0;1" values="1;0" attributeName="opacity"></animate>
  </rect>
</g><g transform="rotate(105 50 50)">
  <rect fill="#6a63b6" height="3" width="3" ry="0.75" rx="0.75" y="14.5" x="48.5">
    <animate repeatCount="indefinite" begin="-0.24968789013732834s" dur="0.37453183520599254s" keyTimes="0;1" values="1;0" attributeName="opacity"></animate>
  </rect>
</g><g transform="rotate(120 50 50)">
  <rect fill="#fe718d" height="3" width="3" ry="0.75" rx="0.75" y="14.5" x="48.5">
    <animate repeatCount="indefinite" begin="-0.23408239700374533s" dur="0.37453183520599254s" keyTimes="0;1" values="1;0" attributeName="opacity"></animate>
  </rect>
</g><g transform="rotate(135 50 50)">
  <rect fill="#f47e60" height="3" width="3" ry="0.75" rx="0.75" y="14.5" x="48.5">
    <animate repeatCount="indefinite" begin="-0.2184769038701623s" dur="0.37453183520599254s" keyTimes="0;1" values="1;0" attributeName="opacity"></animate>
  </rect>
</g><g transform="rotate(150 50 50)">
  <rect fill="#f8b26a" height="3" width="3" ry="0.75" rx="0.75" y="14.5" x="48.5">
    <animate repeatCount="indefinite" begin="-0.20287141073657927s" dur="0.37453183520599254s" keyTimes="0;1" values="1;0" attributeName="opacity"></animate>
  </rect>
</g><g transform="rotate(165 50 50)">
  <rect fill="#abbd81" height="3" width="3" ry="0.75" rx="0.75" y="14.5" x="48.5">
    <animate repeatCount="indefinite" begin="-0.18726591760299627s" dur="0.37453183520599254s" keyTimes="0;1" values="1;0" attributeName="opacity"></animate>
  </rect>
</g><g transform="rotate(180 50 50)">
  <rect fill="#849b87" height="3" width="3" ry="0.75" rx="0.75" y="14.5" x="48.5">
    <animate repeatCount="indefinite" begin="-0.17166042446941324s" dur="0.37453183520599254s" keyTimes="0;1" values="1;0" attributeName="opacity"></animate>
  </rect>
</g><g transform="rotate(195 50 50)">
  <rect fill="#6492ac" height="3" width="3" ry="0.75" rx="0.75" y="14.5" x="48.5">
    <animate repeatCount="indefinite" begin="-0.1560549313358302s" dur="0.37453183520599254s" keyTimes="0;1" values="1;0" attributeName="opacity"></animate>
  </rect>
</g><g transform="rotate(210 50 50)">
  <rect fill="#637cb5" height="3" width="3" ry="0.75" rx="0.75" y="14.5" x="48.5">
    <animate repeatCount="indefinite" begin="-0.1404494382022472s" dur="0.37453183520599254s" keyTimes="0;1" values="1;0" attributeName="opacity"></animate>
  </rect>
</g><g transform="rotate(225 50 50)">
  <rect fill="#6a63b6" height="3" width="3" ry="0.75" rx="0.75" y="14.5" x="48.5">
    <animate repeatCount="indefinite" begin="-0.12484394506866417s" dur="0.37453183520599254s" keyTimes="0;1" values="1;0" attributeName="opacity"></animate>
  </rect>
</g><g transform="rotate(240 50 50)">
  <rect fill="#fe718d" height="3" width="3" ry="0.75" rx="0.75" y="14.5" x="48.5">
    <animate repeatCount="indefinite" begin="-0.10923845193508115s" dur="0.37453183520599254s" keyTimes="0;1" values="1;0" attributeName="opacity"></animate>
  </rect>
</g><g transform="rotate(255 50 50)">
  <rect fill="#f47e60" height="3" width="3" ry="0.75" rx="0.75" y="14.5" x="48.5">
    <animate repeatCount="indefinite" begin="-0.09363295880149813s" dur="0.37453183520599254s" keyTimes="0;1" values="1;0" attributeName="opacity"></animate>
  </rect>
</g><g transform="rotate(270 50 50)">
  <rect fill="#f8b26a" height="3" width="3" ry="0.75" rx="0.75" y="14.5" x="48.5">
    <animate repeatCount="indefinite" begin="-0.0780274656679151s" dur="0.37453183520599254s" keyTimes="0;1" values="1;0" attributeName="opacity"></animate>
  </rect>
</g><g transform="rotate(285 50 50)">
  <rect fill="#abbd81" height="3" width="3" ry="0.75" rx="0.75" y="14.5" x="48.5">
    <animate repeatCount="indefinite" begin="-0.062421972534332085s" dur="0.37453183520599254s" keyTimes="0;1" values="1;0" attributeName="opacity"></animate>
  </rect>
</g><g transform="rotate(300 50 50)">
  <rect fill="#849b87" height="3" width="3" ry="0.75" rx="0.75" y="14.5" x="48.5">
    <animate repeatCount="indefinite" begin="-0.04681647940074907s" dur="0.37453183520599254s" keyTimes="0;1" values="1;0" attributeName="opacity"></animate>
  </rect>
</g><g transform="rotate(315 50 50)">
  <rect fill="#6492ac" height="3" width="3" ry="0.75" rx="0.75" y="14.5" x="48.5">
    <animate repeatCount="indefinite" begin="-0.031210986267166042s" dur="0.37453183520599254s" keyTimes="0;1" values="1;0" attributeName="opacity"></animate>
  </rect>
</g><g transform="rotate(330 50 50)">
  <rect fill="#637cb5" height="3" width="3" ry="0.75" rx="0.75" y="14.5" x="48.5">
    <animate repeatCount="indefinite" begin="-0.015605493133583021s" dur="0.37453183520599254s" keyTimes="0;1" values="1;0" attributeName="opacity"></animate>
  </rect>
</g><g transform="rotate(345 50 50)">
  <rect fill="#6a63b6" height="3" width="3" ry="0.75" rx="0.75" y="14.5" x="48.5">
    <animate repeatCount="indefinite" begin="0s" dur="0.37453183520599254s" keyTimes="0;1" values="1;0" attributeName="opacity"></animate>
  </rect>
</g><g></g></g><!-- [ldio] generated by https://loading.io --></svg>